<svg width="18" height="18" viewBox="0 0 18 18" fill="none" xmlns="http://www.w3.org/2000/svg">
<path fill-rule="evenodd" clip-rule="evenodd" d="M9 0C13.9565 0 18 4.07299 18 9.06569C17.8696 14.0584 13.9565 18 9 18C4.04348 18 0 13.927 0 8.93431C0 4.07299 4.04348 0 9 0Z" fill="#9FA6B0"/>
<path fill-rule="evenodd" clip-rule="evenodd" d="M5.6087 6.17519C6.39131 6.17519 7.04348 6.83212 7.04348 7.62044C7.04348 8.40876 6.39131 9.0657 5.6087 9.0657C4.82609 9.0657 4.17392 8.40876 4.17392 7.62044C4.17392 6.83212 4.82609 6.17519 5.6087 6.17519Z" fill="white"/>
<path fill-rule="evenodd" clip-rule="evenodd" d="M12.2608 6.17519C13.0434 6.17519 13.6956 6.83212 13.6956 7.62044C13.6956 8.40876 13.0434 9.0657 12.2608 9.0657C11.4782 9.0657 10.826 8.40876 10.826 7.62044C10.826 6.70073 11.4782 6.17519 12.2608 6.17519Z" fill="white"/>
<path d="M5.47829 12.219C5.21742 11.9562 5.08698 11.562 5.34785 11.2993C5.60872 11.0365 6.00003 10.9051 6.2609 11.1679C6.2609 11.1679 9.39133 13.4015 11.7392 11.1679C12 10.9051 12.3913 10.9051 12.6522 11.1679C12.9131 11.4306 12.9131 11.8248 12.6522 12.0876C9.39133 15.1095 5.47829 12.219 5.47829 12.219Z" fill="white"/>
</svg>
