<svg width="70" height="18" viewBox="0 0 70 18" fill="none" xmlns="http://www.w3.org/2000/svg">
<path d="M0.316584 0.904526C0.135679 0.678394 0 0.407037 0 0H20.9398C21.7086 0 22.387 0.316584 22.8393 0.814073C23.2915 1.31156 23.5177 2.03518 23.4272 2.80403L22.0704 15.2865L22.0252 15.7388H21.5729H14.0654C14.2011 15.4674 14.2463 15.196 14.2915 14.8795V14.8342H21.2111L22.5227 2.80403C22.5679 2.26131 22.4322 1.80905 22.1157 1.44724C21.7991 1.13066 21.3468 0.904526 20.8493 0.904526H6.46736L5.11057 13.6131C5.06535 13.9297 5.1558 14.2463 5.38193 14.4724H5.3367C5.56283 14.6985 5.83419 14.8342 6.196 14.8342H8.05028V14.8795C8.05028 15.196 8.05028 15.4674 8.09551 15.7388H6.10555C5.51761 15.7388 4.97489 15.5126 4.65831 15.1056C4.2965 14.7438 4.11559 14.2011 4.20605 13.6131L5.56283 0.904526H0.316584Z" fill="#00AD48"/>
<path d="M11.4875 11.804C12.392 11.804 13.1156 12.1206 13.6131 12.7085C14.1106 13.2512 14.3819 14.0201 14.2915 14.8794C14.201 15.7387 13.7488 16.5528 13.1608 17.0955C12.5277 17.6834 11.7136 18 10.8543 18C9.99499 18 9.22614 17.6834 8.72865 17.0955C8.23116 16.5528 7.9598 15.7387 8.05025 14.8794C8.14071 14.0201 8.59297 13.2512 9.22614 12.7085C9.81408 12.1206 10.6282 11.804 11.4875 11.804ZM12.8895 13.3417C12.5277 12.9347 12.0302 12.7085 11.397 12.7085C10.8091 12.7085 10.2211 12.9347 9.76885 13.3417C9.31659 13.7487 9.04523 14.2914 8.95478 14.8794C8.90955 15.5126 9.09046 16.0553 9.45227 16.4623C9.81408 16.8693 10.3116 17.0955 10.9447 17.0955C11.5327 17.0955 12.1206 16.8693 12.5729 16.4623C13.0251 16.0553 13.2965 15.5126 13.387 14.8794C13.4322 14.2914 13.2513 13.7487 12.8895 13.3417Z" fill="#00AD48"/>
<path d="M19.1308 4.34177C18.8595 4.34177 18.6786 4.16086 18.7238 3.8895C18.769 3.66337 18.9951 3.43724 19.2213 3.43724H28.5831C28.7188 3.43724 28.8545 3.52769 28.8997 3.61815L31.7037 7.95987C31.7942 8.05032 31.7942 8.14078 31.7942 8.23123L31.1158 14.4272C31.0706 14.7438 30.8897 15.1056 30.6635 15.3318C30.3922 15.5579 30.0756 15.7388 29.7138 15.7388H28.9449C29.0354 15.4674 29.0806 15.1961 29.1258 14.8795V14.8343H29.8042C29.8947 14.8343 29.9851 14.789 30.0756 14.6986C30.166 14.6534 30.2113 14.5177 30.2113 14.4272L30.8897 8.41213L28.2213 4.34177H19.1308ZM22.9298 15.7388H21.6635C21.3921 15.7388 21.2112 15.5127 21.2565 15.2865C21.2565 15.0152 21.4826 14.8343 21.7539 14.8343H22.9298L22.8846 14.8795C22.8846 15.1961 22.8846 15.4674 22.9298 15.7388Z" fill="#00AD48"/>
<path d="M26.3669 11.804C27.2262 11.804 27.9498 12.1206 28.4473 12.7085C28.9448 13.2512 29.2162 14.0201 29.1257 14.8794C29.0353 15.7387 28.583 16.5528 27.9951 17.0955C27.3619 17.6834 26.5478 18 25.6885 18C24.8292 18 24.0604 17.6834 23.5629 17.0955C23.0654 16.5528 22.794 15.7387 22.8845 14.8794C22.9749 14.0201 23.4272 13.2512 24.0604 12.7085C24.6935 12.1206 25.5076 11.804 26.3669 11.804ZM27.7237 13.3417C27.4071 12.9347 26.8644 12.7085 26.2312 12.7085C25.6433 12.7085 25.0553 12.9347 24.6031 13.3417C24.196 13.7487 23.8795 14.2914 23.789 14.8794C23.7438 15.5126 23.9247 16.0553 24.2865 16.4623C24.6483 16.8693 25.1458 17.0955 25.779 17.0955C26.3669 17.0955 26.9548 16.8693 27.4071 16.4623C27.8594 16.0553 28.176 15.5126 28.2212 14.8794C28.2664 14.2914 28.0855 13.7487 27.7237 13.3417Z" fill="#00AD48"/>
<path d="M1.40209 4.34177C1.17596 4.11564 1.04028 3.84428 1.08551 3.43724H12.9348C13.2062 3.43724 13.3871 3.66337 13.3418 3.8895C13.3418 4.16086 13.1157 4.34177 12.8443 4.34177H1.40209Z" fill="#00AD48"/>
<path d="M31.161 9.94979H25.4625C25.2815 9.94979 25.1459 9.90456 25.0554 9.81411C24.965 9.67843 24.9197 9.54275 24.9197 9.40707L25.2815 6.19601C25.2815 6.06033 25.372 5.92465 25.5077 5.83419C25.5981 5.69852 25.7338 5.65329 25.9147 5.65329H29.9851L29.8946 6.55782H26.1408L25.8695 9.04526H31.2514L31.161 9.94979Z" fill="#00AD48"/>
<path d="M2.84921 9.94978C2.57785 9.72365 2.4874 9.40707 2.4874 9.04526H19.9447C20.1709 9.04526 20.3518 9.22616 20.3518 9.49752C20.3066 9.72365 20.0804 9.94978 19.8543 9.94978H2.84921Z" fill="#00AD48"/>
<path fill-rule="evenodd" clip-rule="evenodd" d="M40.7489 3.6181C40.9298 3.70856 41.1107 3.88946 41.2464 4.07037C41.5178 4.4774 41.6082 4.92967 41.563 5.38193C41.4725 6.10555 41.1559 6.69349 40.568 7.10053C39.9348 7.50757 39.166 7.64324 38.4424 7.64324H35.1408L35.9097 1.31156H34.0102C33.7841 1.0402 33.6484 0.542716 33.6484 0.0904526C35.367 0.0904526 37.0403 0.0904526 38.7589 0.0904526C39.4373 0.0904526 40.2514 0.180905 40.8394 0.633168C41.3821 1.0402 41.563 1.67337 41.4725 2.35177C41.4273 2.71358 41.2916 3.03016 41.0203 3.34675C40.9298 3.4372 40.8394 3.52765 40.7489 3.6181ZM44.0957 4.52263L43.9147 6.10555H47.3519L47.171 7.64324H41.8343L42.6936 0.0904526H47.9851L47.8042 1.62815H44.4122L44.2766 2.98494H47.171L46.9901 4.52263H44.0957ZM53.2314 3.6181C53.4123 3.70856 53.5932 3.88946 53.7289 4.07037C54.0002 4.4774 54.0907 4.92967 54.0454 5.38193C53.955 6.10555 53.6384 6.69349 53.0505 7.10053C52.4173 7.50757 51.6484 7.64324 50.9248 7.64324H47.6233L48.5278 0.0904526H51.2414C51.9198 0.0904526 52.7339 0.180905 53.3218 0.633168C53.8645 1.0402 54.0454 1.67337 53.955 2.35177C53.9098 2.71358 53.7741 3.03016 53.5027 3.34675C53.4123 3.4372 53.3218 3.52765 53.2314 3.6181ZM58.4776 6.06032H56.3068L55.5379 7.64324H53.5479L57.2565 0.0904526H58.8847L60.8294 7.64324H58.8847L58.4776 6.06032ZM65.1711 5.51761C65.1711 5.3367 65.1259 5.20102 64.9902 5.06535C64.7641 4.88444 64.3118 4.74876 64.0404 4.65831C63.3621 4.4774 62.6384 4.20605 62.1409 3.79901C61.6435 3.39197 61.4625 2.80403 61.5078 2.21609C61.5982 1.49247 61.96 0.994979 62.548 0.587942C63.1359 0.135679 63.8595 0 64.6284 0C65.352 0 66.1209 0.135679 66.7088 0.678394C67.2063 1.13066 67.4324 1.76383 67.342 2.44222L67.2967 2.48745L67.2063 2.7588H65.4425L65.4877 2.39699C65.5329 2.17086 65.4877 1.94473 65.3068 1.76383C65.0807 1.58292 64.7641 1.53769 64.4927 1.53769C64.2214 1.53769 63.9048 1.58292 63.6786 1.76383C63.4977 1.8995 63.4073 2.03518 63.4073 2.26131C63.3621 2.44222 63.4525 2.53267 63.5882 2.62313C63.8595 2.84926 64.3118 2.98494 64.6284 3.07539C65.2616 3.25629 65.9852 3.52765 66.4827 3.97991C66.9349 4.43218 67.1158 4.97489 67.0254 5.60806C66.9349 6.28646 66.5731 6.82917 65.9852 7.19098C65.352 7.59802 64.6284 7.77892 63.8595 7.77892C63.0907 7.77892 62.3671 7.59802 61.7339 7.14576C61.1007 6.69349 60.8746 6.0151 61.0103 5.24625V5.20102L61.1007 4.97489H62.8646L62.8193 5.29148C62.7741 5.56283 62.8193 5.78897 63.0455 5.96987C63.3168 6.15078 63.6334 6.196 63.95 6.196C64.2666 6.196 64.5832 6.15078 64.8545 6.0151C65.0354 5.87942 65.1259 5.74374 65.1711 5.51761ZM37.4022 4.52263L37.2213 6.10555H38.5328C38.8494 6.10555 39.166 6.06032 39.3921 5.87942C39.573 5.74374 39.6635 5.56283 39.7087 5.3367C39.7087 5.11057 39.7087 4.88444 39.5278 4.74876C39.3469 4.56786 39.0755 4.52263 38.8494 4.52263H37.4022ZM37.5831 3.03016H38.5328C38.8042 3.03016 39.0755 2.98494 39.3017 2.80403C39.4826 2.66835 39.573 2.53267 39.6182 2.30654C39.6182 2.12564 39.6182 1.94473 39.4373 1.85428C39.2564 1.67337 38.8946 1.62815 38.6685 1.62815H37.7187L37.5831 3.03016ZM49.8846 4.52263L49.7037 6.10555H51.0153C51.3319 6.10555 51.6484 6.06032 51.8746 5.87942C52.0555 5.74374 52.1459 5.56283 52.1912 5.3367C52.1912 5.11057 52.1912 4.88444 52.0103 4.74876C51.8293 4.56786 51.558 4.52263 51.3319 4.52263H49.8846ZM50.0655 3.03016H51.0153C51.2866 3.03016 51.558 2.98494 51.7841 2.80403C51.965 2.66835 52.0555 2.53267 52.1007 2.30654C52.1007 2.12564 52.1007 1.94473 51.9198 1.85428C51.7389 1.67337 51.3771 1.62815 51.151 1.62815H50.2012L50.0655 3.03016ZM57.0304 4.43218H58.1158L57.754 2.93971L57.0304 4.43218Z" fill="#00AD48"/>
<path d="M39.5808 12.542C39.5207 13.236 39.351 13.8425 39.0717 14.3613C38.7926 14.877 38.4264 15.271 37.9732 15.5434C37.5199 15.8159 37.0068 15.9521 36.4339 15.9521C35.874 15.9521 35.3893 15.8159 34.98 15.5434C34.5709 15.2678 34.2679 14.877 34.0708 14.3711C33.8773 13.8619 33.8062 13.2733 33.8576 12.6052L33.9018 12.0944C33.9608 11.4134 34.1317 10.8118 34.4146 10.2897C34.6975 9.76754 35.0673 9.36865 35.5241 9.09299C35.9845 8.81408 36.4946 8.67463 37.0545 8.67463C37.6242 8.67463 38.1135 8.81246 38.5226 9.08812C38.9352 9.36054 39.2361 9.75781 39.4252 10.2799C39.6146 10.7988 39.6794 11.4037 39.6196 12.0944L39.5808 12.542ZM38.6878 12.0847C38.7606 11.2448 38.6471 10.601 38.3473 10.1535C38.0478 9.70268 37.5937 9.47729 36.985 9.47729C36.3925 9.47729 35.9059 9.70268 35.525 10.1535C35.1477 10.601 34.9196 11.2237 34.8408 12.0215L34.7957 12.542C34.7251 13.356 34.8406 13.9965 35.1419 14.4635C35.4468 14.9273 35.9003 15.1591 36.5025 15.1591C37.108 15.1591 37.5957 14.9402 37.9657 14.5024C38.3359 14.0614 38.5615 13.4306 38.6423 12.6101L38.6878 12.0847ZM46.164 15.8548H45.2216L42.1153 10.3967L41.6425 15.8548H40.7001L41.3136 8.77192H42.256L45.37 14.2543L45.8449 8.77192H46.7775L46.164 15.8548ZM53.1585 14.9256C52.8879 15.2694 52.5286 15.5272 52.0808 15.6991C51.6365 15.8677 51.1279 15.9521 50.555 15.9521C49.9755 15.9521 49.4729 15.8175 49.047 15.5483C48.6213 15.2759 48.3065 14.89 48.1023 14.3905C47.9015 13.8911 47.8263 13.3122 47.8768 12.6539L47.9303 12.0361C48.0227 10.9691 48.3434 10.1421 48.8923 9.55512C49.4444 8.96813 50.173 8.67463 51.0779 8.67463C51.8201 8.67463 52.401 8.86435 52.8206 9.24379C53.2405 9.61998 53.4708 10.1551 53.5116 10.8491H52.5741C52.4795 9.91186 51.9602 9.44324 51.0162 9.44324C50.388 9.44324 49.892 9.66377 49.5283 10.1048C49.1681 10.5426 48.9502 11.1783 48.8748 12.0117L48.8247 12.5906C48.7558 13.3852 48.8833 14.0176 49.2072 14.4878C49.5313 14.9548 50.0043 15.1883 50.626 15.1883C50.9776 15.1883 51.2885 15.1494 51.559 15.0716C51.8294 14.9937 52.0589 14.8624 52.2474 14.6775L52.3852 13.0868H50.7397L50.8054 12.3279H53.3835L53.1585 14.9256ZM56.7373 12.5614L55.7902 13.4614L55.5829 15.8548H54.6454L55.259 8.77192H56.1965L55.8931 12.2744L59.3556 8.77192H60.4884L57.4196 11.8999L60.0946 15.8548H58.9716L56.7373 12.5614ZM61.9208 15.8548H60.9833L61.5968 8.77192H62.5343L61.9208 15.8548ZM66.4952 12.9895H64.8253L64.5771 15.8548H63.6347L64.2482 8.77192H66.6017C67.4025 8.77192 68.002 8.95353 68.4002 9.31676C68.8017 9.67998 68.9724 10.2086 68.9123 10.9026C68.8741 11.3437 68.7203 11.728 68.4511 12.0555C68.1851 12.3831 67.8318 12.6279 67.3914 12.7901L68.8009 15.7964L68.7958 15.8548H67.7899L66.4952 12.9895ZM64.8914 12.2258H66.3318C66.7973 12.2258 67.1772 12.1058 67.4714 11.8658C67.7689 11.6258 67.9351 11.3048 67.9699 10.9026C68.0078 10.4648 67.9051 10.1291 67.6616 9.89564C67.4214 9.66214 67.0541 9.54377 66.5596 9.54053H65.124L64.8914 12.2258Z" fill="#00AD48"/>
</svg>
