<svg width="18" height="18" viewBox="0 0 18 18" fill="none" xmlns="http://www.w3.org/2000/svg">
<path fill-rule="evenodd" clip-rule="evenodd" d="M5.08397 0H12.916C15.6641 0 18 2.33588 18 5.08397V12.916C18 15.6641 15.6641 18 12.916 18H5.08397C2.33588 18 0 15.6641 0 12.916V5.08397C0 2.33588 2.33588 0 5.08397 0Z" fill="#19AC4B"/>
<path fill-rule="evenodd" clip-rule="evenodd" d="M3.43513 14.1526H14.5649C14.7023 14.1526 14.9771 14.2901 14.9771 14.5649V15.5267C14.9771 15.6641 14.8397 15.9389 14.5649 15.9389H3.43513C3.29773 15.9389 3.02292 15.8015 3.02292 15.5267V14.5649C3.16032 14.4275 3.29773 14.1526 3.43513 14.1526Z" fill="white"/>
<path fill-rule="evenodd" clip-rule="evenodd" d="M3.70995 2.47327C4.53438 2.47327 5.084 3.16029 5.084 3.84731C5.084 4.67174 4.39698 5.22136 3.70995 5.22136C2.88553 5.22136 2.33591 4.53434 2.33591 3.84731C2.33591 3.02288 3.02293 2.47327 3.70995 2.47327Z" fill="white"/>
<path fill-rule="evenodd" clip-rule="evenodd" d="M2.74808 10.855L5.90838 7.14504L8.51907 9.0687L12.0916 5.49619L16.4885 10.7176C16.3511 10.7176 2.74808 10.855 2.74808 10.855Z" fill="white"/>
</svg>
