<svg width="20" height="18" viewBox="0 0 20 18" fill="none" xmlns="http://www.w3.org/2000/svg">
<path fill-rule="evenodd" clip-rule="evenodd" d="M6.74085 18H4.14329C3.15549 18 2.35061 17.1951 2.35061 16.2073V9.69512L1.21646 10.8293C1.07012 10.9756 0.887195 10.9756 0.740854 10.8293L0.0823171 10.1707C-0.027439 10.0244 -0.027439 9.84146 0.0823171 9.73171L9.52134 0L18.9604 9.73171C19.0701 9.84146 19.0701 10.0244 18.9604 10.1707L18.3018 10.8293C18.1555 10.9756 17.9726 10.9756 17.8262 10.8293L16.6921 9.69512V16.2073C16.6921 17.1951 15.8872 18 14.8994 18H12.3018V14.0854C12.3018 13.2073 11.5701 12.4756 10.6555 12.4756H8.38719C7.47256 12.4756 6.74085 13.2073 6.74085 14.0854V18Z" fill="#9FA6B0"/>
</svg>
