<svg width="20" height="19" viewBox="0 0 20 19" fill="none" xmlns="http://www.w3.org/2000/svg">
<path fill-rule="evenodd" clip-rule="evenodd" d="M15.1095 14.9343C16.0292 14.9343 16.6861 15.7227 16.6861 16.511C16.6861 17.4307 15.8978 18.0876 15.1095 18.0876C14.3212 18.0876 13.5328 17.4307 13.5328 16.511C13.5328 15.5913 14.1898 14.9343 15.1095 14.9343ZM4.9927 2.71535H18.7883C19.3139 2.71535 19.8394 3.10951 19.708 3.63506L17.0803 12.1752C16.9489 12.5694 16.6861 13.0949 16.1606 13.0949H6.83212C6.30657 13.0949 6.0438 12.7008 5.91241 12.1752C4.9927 8.10221 4.20438 5.34309 2.89051 1.66426H0.788322C0.394161 1.66426 0 1.2701 0 0.875937C0 0.481776 0.394161 0.087616 0.788322 0.087616H3.54745C3.94161 0.087616 4.20438 0.35039 4.33577 0.74455L4.9927 2.71535ZM7.35767 14.9343C8.27737 14.9343 8.93431 15.7227 8.93431 16.511C8.93431 17.4307 8.14599 18.0876 7.35767 18.0876C6.56934 18.0876 5.78102 17.2993 5.78102 16.511C5.78102 15.5913 6.43796 14.9343 7.35767 14.9343Z" fill="#19AC4B"/>
</svg>
