<svg width="18" height="18" viewBox="0 0 18 18" fill="none" xmlns="http://www.w3.org/2000/svg">
<path fill-rule="evenodd" clip-rule="evenodd" d="M3.34884 0H5.86047C7.67442 0 9.06977 1.39535 9.06977 3.2093C9.06977 1.39535 10.4651 0 12.2791 0H14.7907C16.6047 0 18 1.39535 18 3.2093V11.1628C18 13.6744 14.2326 17.8605 11.8605 18H3.2093C1.39535 18 0 16.6047 0 14.7907V3.2093C0.139535 1.53488 1.67442 0 3.34884 0Z" fill="#19AC4B"/>
<path fill-rule="evenodd" clip-rule="evenodd" d="M7.81391 10.0465L12.6976 5.44183C12.9767 5.16276 13.2558 5.02322 13.6744 5.02322C14.372 5.02322 14.9302 5.58136 14.9302 6.27904C14.9302 6.55811 14.7907 6.83718 14.6511 7.11625L8.79065 12.6976C8.51158 12.9767 8.23252 13.1162 7.95345 13.1162C7.67438 13.1162 7.25577 12.9767 7.11624 12.6976L4.46507 9.76741C4.186 9.48834 4.186 9.20927 4.186 8.9302C4.186 8.23253 4.74414 7.67439 5.44182 7.67439C5.72089 7.67439 6.13949 7.81392 6.27903 8.09299L7.81391 10.0465Z" fill="white"/>
</svg>
