<svg width="30" height="18" viewBox="0 0 30 18" fill="none" xmlns="http://www.w3.org/2000/svg">
<path fill-rule="evenodd" clip-rule="evenodd" d="M0 2C0 0.895431 0.895431 0 2 0H28C29.1046 0 30 0.895431 30 2L30 6.31578C28.2559 6.31578 26.8421 7.72962 26.8421 9.47368C26.8421 11.2177 28.2559 12.6316 30 12.6316L30 15.3684C30 16.473 29.1046 17.3684 28 17.3684H2C0.89543 17.3684 0 16.473 0 15.3684V12.6316C1.74405 12.6316 3.15788 11.2177 3.15788 9.47368C3.15788 7.72962 1.74405 6.31579 0 6.31578V2Z" fill="#53DB53"/>
<path fill-rule="evenodd" clip-rule="evenodd" d="M5.625 14.0625C11.8382 14.0625 16.875 9.0257 16.875 2.8125C16.875 1.84134 16.7519 0.898931 16.5206 0H2C0.895431 0 0 0.895431 0 2V6.31578C1.74405 6.31579 3.15788 7.72962 3.15788 9.47368C3.15788 11.1756 1.81151 12.5631 0.125744 12.6291C1.75174 13.542 3.62758 14.0625 5.625 14.0625Z" fill="#19AC4B"/>
<ellipse cx="14.5769" cy="8.77273" rx="6.57692" ry="7.77273" fill="white"/>
<path d="M14.5769 11.2479L16.4379 12.3734C16.7787 12.5797 17.1957 12.2747 17.106 11.8891L16.6128 9.77253L18.2585 8.34653C18.5589 8.08645 18.3975 7.59318 18.0029 7.56179L15.837 7.37793L14.9895 5.37795C14.837 5.01472 14.3168 5.01472 14.1644 5.37795L13.3168 7.37345L11.1509 7.5573C10.7563 7.58869 10.5949 8.08196 10.8953 8.34205L12.5411 9.76805L12.0478 11.8846C11.9581 12.2703 12.3751 12.5752 12.7159 12.3689L14.5769 11.2479V11.2479Z" fill="#19AC4B"/>
</svg>
