<svg width="18" height="18" viewBox="0 0 18 18" fill="none" xmlns="http://www.w3.org/2000/svg">
<path d="M4.76129 18H2.90323C2.09032 18 1.39355 17.6516 0.929032 17.1871C0.464516 16.7226 0.116129 15.9097 0.116129 15.2129V13.0065H1.50968V15.2129C1.50968 15.5613 1.62581 16.0258 1.97419 16.2581C2.32258 16.4903 2.55484 16.7226 3.01935 16.7226H4.99355V18H4.76129ZM18 13.0065V15.2129C18 16.0258 17.6516 16.7226 17.1871 17.1871C16.7226 17.6516 15.9097 18 15.2129 18H13.2387V16.6065H15.2129C15.5613 16.6065 16.0258 16.4903 16.2581 16.1419C16.4903 15.7935 16.7226 15.5613 16.7226 15.0968V12.8903H18V13.0065ZM13.2387 0H15.2129C16.0258 0 16.7226 0.348387 17.1871 0.812903C17.6516 1.27742 18 2.09032 18 2.7871V4.52903H16.6065V2.90323C16.6065 2.55484 16.4903 2.09032 16.1419 1.85806C15.7935 1.62581 15.5613 1.39355 15.0968 1.39355H13.1226V0H13.2387ZM3.6 3.48387H7.54839C7.78064 3.48387 7.89677 3.6 7.89677 3.83226V7.54839C7.89677 7.78064 7.78064 7.89677 7.54839 7.89677H3.6C3.36774 7.89677 3.25161 7.78064 3.25161 7.54839V3.83226C3.25161 3.6 3.48387 3.48387 3.6 3.48387ZM3.6 14.6323H7.54839C7.78064 14.6323 7.89677 14.5161 7.89677 14.2839V10.5677C7.89677 10.3355 7.78064 10.2194 7.54839 10.2194H3.6C3.36774 10.2194 3.25161 10.3355 3.25161 10.5677V14.2839C3.25161 14.4 3.48387 14.6323 3.6 14.6323ZM14.4 3.48387H10.4516C10.2194 3.48387 10.1032 3.6 10.1032 3.83226V7.54839C10.1032 7.78064 10.2194 7.89677 10.4516 7.89677H14.4C14.6323 7.89677 14.7484 7.78064 14.7484 7.54839V3.83226C14.7484 3.6 14.6323 3.48387 14.4 3.48387ZM14.7484 10.2194H13.0065V11.8452H14.7484V10.2194ZM10.2194 10.2194H11.9613V11.8452H10.2194V10.2194ZM14.7484 12.8903H13.0065V14.6323H14.7484V12.8903ZM10.2194 12.8903H11.9613V14.6323H10.2194V12.8903ZM0 4.52903V2.90323C0 2.09032 0.348387 1.39355 0.812903 0.929032C1.27742 0.464516 2.09032 0.116129 2.7871 0.116129H4.76129V1.50968H2.90323C2.43871 1.39355 2.09032 1.62581 1.85806 1.85806C1.62581 2.09032 1.39355 2.43871 1.39355 2.90323V4.64516H0V4.52903Z" fill="#9FA6B0"/>
</svg>
